<svg width="24" height="26" viewBox="0 0 24 26" fill="none" xmlns="http://www.w3.org/2000/svg">
<path fill-rule="evenodd" clip-rule="evenodd" d="M11.4983 1.03512C14.5503 0.739025 17.125 3.14105 17.125 6.13746V7.5004C17.0835 7.5001 17.0417 7.49995 16.9998 7.49995H6.99976C6.95793 7.49995 6.91634 7.5001 6.87497 7.50039V6.37496C6.87497 3.79075 8.96964 1.27113 11.4964 1.03529L11.4983 1.03512ZM5.87497 7.5396V6.37496C5.87497 3.33446 8.30484 0.329374 11.4026 0.0397061C15.0501 -0.313633 18.125 2.55916 18.125 6.13746V7.53963C20.2153 7.69498 21.6068 8.30292 22.448 9.3031C23.4273 10.4673 23.5448 12.0283 23.3717 13.5924L23.3709 13.5995L23.3709 13.5995L22.4339 21.0951C22.299 22.3507 21.9909 23.6209 20.9667 24.5566C19.9458 25.4892 18.3135 25.9999 15.7498 25.9999H8.24976C5.68602 25.9999 4.05369 25.4892 3.03283 24.5566C2.00863 23.6209 1.70051 22.3507 1.56558 21.0951L0.628617 13.5995L0.62774 13.5924L0.62779 13.5924C0.454704 12.0283 0.572225 10.4673 1.55149 9.3031C2.39282 8.30286 3.78442 7.69489 5.87497 7.5396ZM2.5584 20.9754L1.62134 13.479C1.45755 11.9948 1.60909 10.7881 2.31677 9.94679C3.02025 9.11044 4.3897 8.49995 6.99976 8.49995H16.9998C19.6098 8.49995 20.9793 9.11044 21.6827 9.94679C22.3904 10.7882 22.542 11.9948 22.3782 13.479L21.4411 20.9754L21.441 20.9754L21.4401 20.9842C21.3123 22.1771 21.0387 23.1363 20.2922 23.8183C19.5412 24.5044 18.211 24.9999 15.7498 24.9999H8.24976C5.78849 24.9999 4.45832 24.5044 3.70731 23.8183C2.96083 23.1363 2.68723 22.1771 2.55941 20.9842L2.55949 20.9842L2.5584 20.9754ZM15.6193 12.9999C15.6193 12.5857 15.9551 12.2499 16.3693 12.2499H16.3806C16.7948 12.2499 17.1306 12.5857 17.1306 12.9999C17.1306 13.4142 16.7948 13.7499 16.3806 13.7499H16.3693C15.9551 13.7499 15.6193 13.4142 15.6193 12.9999ZM7.61811 12.2499C7.20389 12.2499 6.86811 12.5857 6.86811 12.9999C6.86811 13.4142 7.20389 13.7499 7.61811 13.7499H7.62933C8.04355 13.7499 8.37933 13.4142 8.37933 12.9999C8.37933 12.5857 8.04355 12.2499 7.62933 12.2499H7.61811Z" fill="#151515"/>
</svg>
